<?xml version="1.0" encoding="utf-8"?>
<!-- Generator: Adobe Illustrator 25.0.1, SVG Export Plug-In . SVG Version: 6.00 Build 0)  -->
<svg version="1.1" id="Layer_1" xmlns="http://www.w3.org/2000/svg" xmlns:xlink="http://www.w3.org/1999/xlink" x="0px" y="0px"
	 viewBox="0 0 511.6 104.1" style="enable-background:new 0 0 511.6 104.1;" xml:space="preserve">
<style type="text/css">
	.st0{fill:#FFFFFF;}
	.st1{enable-background:new    ;}
	.st2{fill:#DEC26B;}
	.st3{fill:#DDC16A;}
	.st4{fill:none;stroke:#FFFFFF;stroke-width:0.71;stroke-miterlimit:10;}
	.st5{fill:none;stroke:#FFFFFF;stroke-width:0.71;stroke-miterlimit:10;stroke-dasharray:0.69,0.69;}
	.st6{fill:none;}
	.st7{clip-path:url(#SVGID_2_);}
</style>
<g id="Layer_1-2">
	<path class="st0" d="M82,56.4L87.1,44l5.1,12.5L82,56.4L82,56.4z M83.3,33.8L66.8,72.6h8.6l3.5-8.6h16.3l3.5,8.6h8.9L91.1,33.8
		H83.3 M120.8,35.5h-8.4V43h-3.5v7.1h3.5v14c0,6.8,3.5,8.9,8.6,8.9c2.3,0.1,4.6-0.6,6.6-1.8v-6.7c-1.3,0.7-2.7,1.1-4.2,1.1
		c-1.9,0-2.7-1-2.7-2.8V50.2h6.9v-7.1h-6.9L120.8,35.5 M134.3,72.6h8.3V32.4h-8.4L134.3,72.6 M168,62.2c0,3.1-2.6,5.1-6.6,5.1
		c-2.7,0-4.6-1.3-4.6-3.6v-0.1c0-2.6,2.2-4,5.8-4c1.9,0,3.7,0.3,5.4,1.1L168,62.2L168,62.2z M162.7,42.8c-4-0.1-7.9,0.8-11.5,2.4
		l2.1,6.3c2.6-1.1,5.3-1.6,8.1-1.6c4.2,0,6.3,2,6.3,5.4v0.5c-2.3-0.9-4.7-1.3-7.2-1.2c-7,0-11.9,3-11.9,9.4v0.1
		c0,5.8,4.6,9.1,10.2,9.1c3.4,0.1,6.7-1.2,9-3.7v3.2h8.1V55.5C175.8,47.5,171.9,42.8,162.7,42.8 M200.1,42.5c-4.3,0-6.7,2.3-8.6,4.7
		V43h-8.4v29.5h8.3V56.2c0-3.9,2.1-6,5.3-6s5,2.1,5,6v16.4h8.3V53.5C210.1,46.7,206.5,42.5,200.1,42.5 M227.1,35.5h-8.3V43h-3.5v7.1
		h3.5v14c0,6.8,3.5,8.9,8.6,8.9c2.3,0.1,4.6-0.6,6.6-1.8v-6.7c-1.3,0.7-2.7,1.1-4.2,1.1c-1.9,0-2.7-1-2.7-2.8V50.2h6.9v-7.1h-6.9
		L227.1,35.5 M240.6,72.6h8.4V43.1h-8.3L240.6,72.6 M240.4,39.8h8.9v-7.4h-8.9V39.8 M271.1,66.1c-4.6,0-7.4-3.6-7.4-8.1v-0.1
		c0-4.4,3-8,7.1-8c3,0,4.8,1.3,6.7,3.3l5.1-5.5c-2.7-3.1-6.2-4.9-11.8-4.9c-8.3-0.2-15.2,6.3-15.4,14.6c0,0.2,0,0.5,0,0.7V58
		c-0.1,8.3,6.5,15.1,14.8,15.2c0.2,0,0.3,0,0.5,0c4.6,0.2,9.1-1.8,12-5.4l-4.9-4.9C275.9,64.9,274,66.1,271.1,66.1 M324.1,65.4
		c-6.6,0-11.2-5.5-11.2-12.1v-0.1c0-6.6,4.7-12,11.2-12c3.8,0,6.9,1.6,9.8,4.4l5.4-6.2c-3.6-3.5-7.9-5.9-15.2-5.9
		c-10.8-0.3-19.8,8.3-20.1,19.1c0,0.3,0,0.5,0,0.8v0.1c-0.2,10.8,8.4,19.6,19.1,19.8c0.2,0,0.4,0,0.7,0c7.4,0,11.8-2.6,15.8-6.9
		l-5.4-5.5C331.2,63.7,328.4,65.4,324.1,65.4 M367.2,58c0,4.4-2.8,8-7.7,8c-4.3,0-7.8-3.6-7.8-7.9c0-0.1,0-0.1,0-0.2v-0.1
		c0-4.4,2.8-8,7.7-8c4.4,0.1,7.9,3.6,7.8,8C367.2,57.9,367.2,57.9,367.2,58z M359.5,42.5c-9.2,0-16,6.9-16,15.3V58
		c0,8.5,6.8,15.2,15.9,15.2s16-6.9,16-15.3v-0.1C375.4,49.3,368.6,42.5,359.5,42.5 M399.9,59.6c0,3.9-2.1,6-5.3,6s-5-2.1-5-6V43.2
		h-8.4v19.1c0,6.8,3.7,10.9,10.1,10.9c4.3,0,6.7-2.3,8.6-4.7v4.2h8.3V43.2h-8.3L399.9,59.6 M432.7,42.5c-4.3,0-6.7,2.3-8.6,4.7V43
		h-8.4v29.5h8.3V56.2c0-3.9,2.1-6,5.3-6s5,2.1,5,6v16.4h8.4V53.5C442.8,46.7,439,42.5,432.7,42.5 M464.3,66.1
		c-4.6,0-7.4-3.6-7.4-8.1v-0.1c0-4.4,3-8,7.1-8c3,0,4.8,1.3,6.7,3.3l5.1-5.5c-2.7-3.1-6.2-4.9-11.8-4.9c-8.3-0.2-15.2,6.3-15.4,14.6
		c0,0.2,0,0.5,0,0.7V58c-0.1,8.3,6.5,15.1,14.8,15.2c0.2,0,0.3,0,0.5,0c4.6,0.2,9.1-1.8,12-5.4l-4.9-4.9
		C469.1,64.9,467.2,66.1,464.3,66.1 M481.6,39.8h8.9v-7.4h-8.9V39.8 M481.8,72.6h8.4V43.1h-8.3L481.8,72.6 M498.4,32.4v40.1h8.3
		V32.4H498.4"/>
	<g>
		<g class="st1">
			<path class="st2" d="M2.6,86.7L2.6,86.7c0-4.1,2.9-7.4,6.9-7.4c2.5,0,3.9,0.9,5.4,2.3l-0.7,0.8c-1.2-1.2-2.6-2.1-4.7-2.1
				c-3.3,0-5.8,2.8-5.8,6.4l0,0c0,3.6,2.5,6.4,5.8,6.4c2,0,3.4-0.8,4.8-2.2l0.7,0.7c-1.5,1.5-3,2.5-5.5,2.5
				C5.6,94,2.6,90.8,2.6,86.7z"/>
			<path class="st2" d="M21,79.5h9.8v1H22v5.6h7.9v1H22v5.7h8.9v1H21V79.5z"/>
			<path class="st2" d="M37.3,79.5h1v13.3h8.1v1h-9.1C37.3,93.8,37.3,79.5,37.3,79.5z"/>
			<path class="st2" d="M52.7,79.5h9.8v1h-8.8v5.6h7.9v1h-7.9v5.7h8.9v1h-9.9C52.7,93.8,52.7,79.5,52.7,79.5z"/>
			<path class="st2" d="M69,79.5h5.7c1.6,0,2.8,0.5,3.6,1.3c0.6,0.6,0.9,1.3,0.9,2.2l0,0c0,1.9-1.2,2.9-2.3,3.4
				c1.7,0.4,3.1,1.4,3.1,3.4l0,0c0,2.4-2,3.9-4.9,3.9h-6L69,79.5L69,79.5z M78.2,83.1c0-1.6-1.2-2.6-3.5-2.6H70v5.6h4.6
				C76.7,86.1,78.2,85,78.2,83.1L78.2,83.1z M74.7,87.1H70v5.7h5c2.4,0,3.9-1.1,3.9-2.9l0,0C78.9,88.1,77.4,87.1,74.7,87.1z"/>
			<path class="st2" d="M86.4,79.5h5.8c1.7,0,3.1,0.5,3.9,1.4c0.7,0.7,1,1.6,1,2.6l0,0c0,2.4-1.7,3.7-4,4.1l4.6,6.1h-1.3L92,87.8
				h-4.5v5.9h-1L86.4,79.5L86.4,79.5z M92.1,86.9c2.3,0,4-1.2,4-3.3l0,0c0-1.9-1.5-3.1-4-3.1h-4.7v6.4H92.1z"/>
		</g>
		<g class="st1">
			<path class="st2" d="M108.7,79.4h1l6.4,14.3H115l-1.8-4h-8.1l-1.8,4h-1.1L108.7,79.4z M112.8,88.8l-3.6-8.2l-3.6,8.2H112.8z"/>
		</g>
		<g class="st1">
			<path class="st2" d="M124.2,80.5h-4.8v-1H130v1h-4.8v13.3h-1V80.5z"/>
			<path class="st2" d="M136.4,79.5h1v14.2h-1V79.5z"/>
			<path class="st2" d="M144.8,79.5h1l9.5,12.4V79.5h1v14.2h-0.8l-9.7-12.6v12.6h-1V79.5z"/>
			<path class="st2" d="M162.9,86.7L162.9,86.7c0-3.9,2.7-7.4,6.8-7.4c2.2,0,3.7,0.7,5,1.9L174,82c-1.1-1-2.3-1.7-4.4-1.7
				c-3.4,0-5.7,2.9-5.7,6.4l0,0c0,3.7,2.2,6.4,5.9,6.4c1.8,0,3.4-0.8,4.4-1.6v-4.1h-4.6v-1h5.6v5.5C174,93,172,94,169.8,94
				C165.5,94,162.9,90.7,162.9,86.7z"/>
			<path class="st2" d="M190.6,86.7L190.6,86.7c0-3.9,2.8-7.4,7-7.4s6.9,3.4,6.9,7.3l0,0c0,3.9-2.8,7.4-7,7.4S190.6,90.5,190.6,86.7
				z M203.4,86.7L203.4,86.7c0-3.6-2.5-6.4-5.9-6.4s-5.9,2.8-5.9,6.4l0,0c0,3.5,2.5,6.4,5.9,6.4S203.4,90.2,203.4,86.7z"/>
			<path class="st2" d="M210.9,87.8v-8.3h1v8.2c0,3.4,1.8,5.3,4.7,5.3c2.8,0,4.6-1.7,4.6-5.2v-8.3h1v8.2c0,4.1-2.3,6.3-5.7,6.3
				C213.3,94,210.9,91.8,210.9,87.8z"/>
			<path class="st2" d="M229.3,79.5h5.8c1.7,0,3.1,0.5,3.9,1.4c0.7,0.7,1,1.6,1,2.6l0,0c0,2.4-1.7,3.7-4,4.1l4.6,6.1h-1.3l-4.4-5.9
				h-4.5v5.9h-1V79.5H229.3z M234.9,86.9c2.3,0,4-1.2,4-3.3l0,0c0-1.9-1.5-3.1-4-3.1h-4.7v6.4H234.9z"/>
		</g>
		<g class="st1">
			<path class="st2" d="M254,93.4c-1-1.1-1.8-2.7-1.8-5.3l0,0c0-4.5,2.2-7.8,6.8-7.8c2,0,3.5,0.5,4.9,1.5l-2,3.1
				c-0.8-0.6-1.7-1-2.7-1c-1.9,0-2.3,1.7-2.4,2.8c1-0.9,2-1.3,3.1-1.3c2.1,0,4.3,1.6,4.3,4.3l0,0c0,3.4-2.7,5.3-5.7,5.3
				C256.4,95.1,255.1,94.5,254,93.4z M259.8,90.1L259.8,90.1c0-0.9-0.6-1.6-1.5-1.6s-1.5,0.7-1.5,1.6l0,0c0,0.9,0.6,1.6,1.5,1.6
				S259.8,91,259.8,90.1z"/>
			<path class="st2" d="M268.5,87.7L268.5,87.7c0-4,2.5-7.5,6.7-7.5s6.6,3.5,6.6,7.4l0,0c0,3.9-2.5,7.4-6.7,7.4
				S268.5,91.7,268.5,87.7z M277.2,87.7L277.2,87.7c0-2-0.8-3.3-2.1-3.3s-2,1.3-2,3.3l0,0c0,2,0.8,3.3,2.1,3.3
				C276.4,91,277.2,89.7,277.2,87.7z"/>
		</g>
		<g class="st1">
			<path class="st2" d="M288.5,89v-3.8h-1.3v-3.6h1.3v-2.8h4.5v2.8h2.5v3.6H293V88c0,0.8,0.4,1.1,1.1,1.1c0.4,0,0.9-0.1,1.4-0.3v3.6
				c-0.7,0.4-1.8,0.6-2.9,0.6C290,92.9,288.5,91.7,288.5,89z"/>
			<path class="st2" d="M299.7,77.8h4.5V83c0.7-0.9,1.8-1.7,3.3-1.7c2.3,0,3.7,1.5,3.7,4v7.3h-4.5v-5.8c0-1-0.6-1.5-1.2-1.5
				c-0.7,0-1.3,0.5-1.3,1.5v5.8h-4.5V77.8z"/>
		</g>
		<g class="st1">
			<path class="st2" d="M329.1,80.5h4.6l5.8,14.3h-5l-0.7-1.9H329l-0.7,1.9h-4.9L329.1,80.5z M332.6,89.5l-1.3-3.5l-1.3,3.5H332.6z"
				/>
			<path class="st2" d="M343.2,80.6h4.3l4.9,6.3v-6.3h4.6v14.2h-4l-5.1-6.6v6.6h-4.6L343.2,80.6L343.2,80.6z"/>
			<path class="st2" d="M361.8,80.6h4.3l4.9,6.3v-6.3h4.6v14.2h-4.1l-5.1-6.6v6.6h-4.6L361.8,80.6L361.8,80.6z"/>
			<path class="st2" d="M380.3,80.6h4.6v14.2h-4.6V80.6z"/>
			<path class="st2" d="M388.7,80.6h5.2l2.7,8l2.7-8h5.1l-5.6,14.3h-4.4L388.7,80.6z"/>
			<path class="st2" d="M408.1,80.6h11.8v3.9h-7.2v1.4h6.7v3.4h-6.7v1.5h7.3v3.9h-11.9L408.1,80.6L408.1,80.6z"/>
			<path class="st2" d="M424.3,80.6h6.7c2.4,0,4,0.6,5,1.6c0.8,0.9,1.3,1.9,1.3,3.4l0,0c0,2.1-1,3.5-2.7,4.3l3.2,4.8h-5.3l-2.6-4.1
				h-1v4.1h-4.6V80.6z M430.9,87.4c1.1,0,1.8-0.5,1.8-1.4l0,0c0-0.9-0.7-1.4-1.8-1.4h-2v2.8H430.9z"/>
		</g>
		<g class="st1">
			<path class="st2" d="M441.3,92.7l2.5-3c1.5,1.2,3.2,1.7,4.8,1.7c0.8,0,1.2-0.2,1.2-0.6l0,0c0-0.4-0.4-0.6-1.9-0.9
				c-3.1-0.7-5.8-1.6-5.8-4.6l0,0c0-2.7,2-4.8,5.9-4.8c2.7,0,4.6,0.7,6.2,2l-2.2,3.2c-1.3-1-2.9-1.4-4.1-1.4c-0.7,0-1,0.2-1,0.6l0,0
				c0,0.4,0.4,0.6,1.8,0.9c3.5,0.7,5.9,1.7,5.9,4.6l0,0c0,3-2.4,4.8-6.1,4.8C445.5,95.1,443,94.3,441.3,92.7z"/>
		</g>
		<g class="st1">
			<path class="st2" d="M462.6,80.5h4.6l5.8,14.3h-5l-0.7-1.9h-4.8l-0.7,1.9h-4.9L462.6,80.5z M466.1,89.5l-1.3-3.5l-1.3,3.5H466.1z
				"/>
		</g>
		<g class="st1">
			<path class="st2" d="M476.5,80.6h6.7c2.4,0,4,0.6,5,1.6c0.8,0.9,1.3,1.9,1.3,3.4l0,0c0,2.1-1,3.5-2.7,4.3l3.2,4.8h-5.3l-2.6-4.1
				h-1v4.1h-4.6V80.6z M483.1,87.4c1.1,0,1.8-0.5,1.8-1.4l0,0c0-0.9-0.7-1.4-1.8-1.4h-2v2.8H483.1z"/>
		</g>
		<g class="st1">
			<path class="st2" d="M497.4,89.8l-5.2-9.2h5.2l2.4,4.7l2.4-4.7h5.1l-5.2,9.1v5.1h-4.6L497.4,89.8L497.4,89.8z"/>
		</g>
	</g>
	<polygon class="st3" points="9.8,48.8 9.7,48.6 11,47.7 11.1,47.9 	"/>
	<polygon class="st3" points="9.5,48.4 9.4,48.2 10.8,47.4 10.9,47.5 	"/>
	<polygon class="st3" points="9.3,48 9.2,47.8 10.6,47 10.7,47.2 	"/>
	<polygon class="st3" points="9.1,47.6 9,47.5 10.3,46.7 10.5,46.8 	"/>
	<polygon class="st3" points="8.9,47.3 8.8,47.1 10.1,46.3 10.2,46.5 	"/>
	<polygon class="st3" points="8.7,46.9 8.6,46.7 9.9,45.9 10,46.1 	"/>
	<polygon class="st3" points="8.5,46.5 8.4,46.3 9.7,45.6 9.8,45.8 	"/>
	<polygon class="st3" points="8.3,46.1 8.2,45.9 9.5,45.2 9.6,45.4 	"/>
	<polygon class="st3" points="8.1,45.7 8,45.5 9.4,44.8 9.4,45 	"/>
	<polygon class="st3" points="7.9,45.3 7.8,45.1 9.2,44.5 9.3,44.7 	"/>
	<polygon class="st3" points="7.7,44.9 7.6,44.7 9,44.1 9.1,44.3 	"/>
	<polygon class="st3" points="7.5,44.5 7.4,44.3 8.8,43.7 8.9,43.9 	"/>
	<polygon class="st3" points="7.4,44.1 7.3,43.9 8.7,43.3 8.7,43.5 	"/>
	<polygon class="st3" points="7.2,43.7 7.1,43.5 8.5,43 8.6,43.1 	"/>
	<polygon class="st3" points="7,43.3 7,43.1 8.4,42.6 8.4,42.8 	"/>
	<polygon class="st3" points="6.9,42.9 6.8,42.7 8.2,42.2 8.3,42.4 	"/>
	<polygon class="st3" points="6.8,42.5 6.7,42.3 8.1,41.8 8.1,42 	"/>
	<polygon class="st3" points="6.6,42 6.6,41.8 7.9,41.4 8,41.6 	"/>
	<polygon class="st3" points="6.5,41.6 6.4,41.4 7.8,41 7.9,41.2 	"/>
	<polygon class="st3" points="6.4,41.2 6.3,41 7.7,40.6 7.8,40.8 	"/>
	<polygon class="st3" points="6.3,40.8 6.2,40.6 7.6,40.2 7.6,40.4 	"/>
	<polygon class="st3" points="6.2,40.4 6.1,40.2 7.5,39.8 7.5,40 	"/>
	<polygon class="st3" points="6.1,40 6,39.7 7.4,39.4 7.4,39.6 	"/>
	<polygon class="st3" points="6,39.5 5.9,39.3 7.3,39 7.3,39.2 	"/>
	<polygon class="st3" points="5.9,39.1 5.8,38.9 7.2,38.6 7.2,38.8 	"/>
	<polygon class="st3" points="5.8,38.7 5.8,38.5 7.1,38.2 7.2,38.4 	"/>
	<polygon class="st3" points="5.7,38.2 5.7,38 7,37.8 7.1,38 	"/>
	<polygon class="st3" points="5.6,37.8 5.6,37.6 7,37.4 7,37.6 	"/>
	<polygon class="st3" points="5.6,37.4 5.6,37.2 6.9,37 6.9,37.2 	"/>
	<polygon class="st3" points="5.5,36.9 5.5,36.7 6.9,36.6 6.9,36.8 	"/>
	<polygon class="st3" points="5.5,36.5 5.5,36.3 6.8,36.2 6.8,36.4 	"/>
	<polygon class="st3" points="5.4,36.1 5.4,35.9 6.8,35.7 6.8,36 	"/>
	<polygon class="st3" points="5.4,35.6 5.4,35.4 6.7,35.3 6.7,35.5 	"/>
	<polygon class="st3" points="5.4,35.2 5.4,35 6.7,34.9 6.7,35.1 	"/>
	<polygon class="st3" points="5.4,34.8 5.4,34.6 6.7,34.5 6.7,34.7 	"/>
	<polygon class="st3" points="5.4,34.3 5.3,34.1 6.7,34.1 6.7,34.3 	"/>
	<polygon class="st3" points="5.3,33.9 5.3,33.7 6.6,33.7 6.7,33.9 	"/>
	<polygon class="st3" points="5.3,33.5 5.4,33.3 6.6,33.3 6.6,33.5 	"/>
	<polygon class="st3" points="5.4,33 5.4,32.8 6.6,32.8 6.6,33.1 	"/>
	<polygon class="st3" points="5.4,32.6 5.4,32.4 6.7,32.4 6.6,32.6 	"/>
	<polygon class="st3" points="5.4,32.2 5.4,31.9 6.7,32 6.7,32.2 	"/>
	<polygon class="st3" points="5.4,31.7 5.4,31.5 6.7,31.6 6.7,31.8 	"/>
	<polygon class="st3" points="5.5,31.3 5.5,31.1 6.7,31.2 6.7,31.4 	"/>
	<polygon class="st3" points="5.5,30.9 5.5,30.7 6.8,30.8 6.7,31 	"/>
	<polygon class="st3" points="5.5,30.4 5.6,30.2 6.8,30.4 6.8,30.6 	"/>
	<polygon class="st3" points="5.6,30 5.6,29.8 6.8,29.9 6.8,30.2 	"/>
	<polygon class="st3" points="5.7,29.6 5.7,29.4 6.9,29.5 6.9,29.7 	"/>
	<polygon class="st3" points="5.7,29.1 5.8,28.9 7,29.1 6.9,29.3 	"/>
	<polygon class="st3" points="5.8,28.7 5.8,28.5 7,28.7 7,28.9 	"/>
	<polygon class="st3" points="5.9,28.3 5.9,28.1 7.1,28.3 7.1,28.5 	"/>
	<polygon class="st3" points="6,27.9 6,27.7 7.2,27.9 7.1,28.1 	"/>
	<polygon class="st3" points="6.1,27.4 6.1,27.2 7.3,27.5 7.2,27.7 	"/>
	<polygon class="st3" points="6.2,27 6.2,26.8 7.3,27.1 7.3,27.3 	"/>
	<polygon class="st3" points="6.3,26.6 6.3,26.4 7.4,26.7 7.4,26.9 	"/>
	<polygon class="st3" points="6.4,26.2 6.4,26 7.6,26.3 7.5,26.5 	"/>
	<polygon class="st3" points="6.5,25.8 6.6,25.6 7.7,25.9 7.6,26.1 	"/>
	<polygon class="st3" points="6.6,25.3 6.7,25.1 7.8,25.5 7.7,25.7 	"/>
	<polygon class="st3" points="6.8,24.9 6.8,24.7 7.9,25.1 7.8,25.3 	"/>
	<polygon class="st3" points="6.9,24.5 7,24.3 8,24.7 8,24.9 	"/>
	<polygon class="st3" points="7.1,24.1 7.1,23.9 8.2,24.3 8.1,24.5 	"/>
	<polygon class="st3" points="7.2,23.7 7.3,23.5 8.3,23.9 8.2,24.1 	"/>
	<polygon class="st3" points="7.4,23.3 7.5,23.1 8.5,23.5 8.4,23.7 	"/>
	<polygon class="st3" points="7.5,22.9 7.6,22.7 8.6,23.1 8.5,23.3 	"/>
	<polygon class="st3" points="7.7,22.5 7.8,22.3 8.8,22.7 8.7,22.9 	"/>
	<polygon class="st3" points="7.9,22.1 8,21.9 8.9,22.4 8.9,22.5 	"/>
	<polygon class="st3" points="8.1,21.7 8.2,21.5 9.1,22 9,22.2 	"/>
	<polygon class="st3" points="8.3,21.3 8.4,21.1 9.3,21.6 9.2,21.8 	"/>
	<polygon class="st3" points="8.5,20.9 8.6,20.8 9.5,21.2 9.4,21.4 	"/>
	<polygon class="st3" points="8.7,20.6 8.8,20.4 9.7,20.9 9.6,21 	"/>
	<polygon class="st3" points="8.9,20.2 9,20 9.9,20.5 9.8,20.7 	"/>
	<polygon class="st3" points="9.1,19.8 9.2,19.6 10.1,20.1 10,20.3 	"/>
	<polygon class="st3" points="9.3,19.4 9.4,19.2 10.3,19.8 10.2,19.9 	"/>
	<polygon class="st3" points="9.5,19.1 9.6,18.9 10.5,19.4 10.4,19.6 	"/>
	<polygon class="st3" points="9.8,18.7 9.9,18.5 10.7,19.1 10.6,19.2 	"/>
	<polygon class="st3" points="10,18.3 10.1,18.2 10.9,18.7 10.8,18.9 	"/>
	<polygon class="st3" points="10.2,18 10.4,17.8 11.2,18.4 11.1,18.5 	"/>
	<path class="st4" d="M53.4,15.7c0,0.1,0.1,0.1,0.1,0.2"/>
	<path class="st5" d="M53.8,16.1c9,10.9,8.4,26.9-1.5,36.5"/>
	<path class="st4" d="M52.1,52.8L52.1,52.8"/>
	<polygon class="st3" points="52.4,54.2 52.3,54.3 50.6,52.4 50.6,52.3 	"/>
	<polygon class="st3" points="52.1,54.4 52,54.6 50.3,52.7 50.4,52.6 	"/>
	<polygon class="st3" points="51.8,54.7 51.6,54.9 50,53 50.1,52.8 	"/>
	<polygon class="st3" points="51.5,55 51.3,55.2 49.7,53.2 49.8,53.1 	"/>
	<polygon class="st3" points="51.1,55.3 50.9,55.4 49.4,53.5 49.5,53.4 	"/>
	<polygon class="st3" points="50.8,55.6 50.6,55.7 49,53.7 49.2,53.6 	"/>
	<polygon class="st3" points="50.4,55.9 50.2,56 48.7,54 48.9,53.9 	"/>
	<polygon class="st3" points="50.1,56.1 49.9,56.3 48.4,54.2 48.6,54.1 	"/>
	<polygon class="st3" points="49.7,56.4 49.5,56.5 48.1,54.5 48.2,54.4 	"/>
	<polygon class="st3" points="49.3,56.6 49.2,56.8 47.7,54.7 47.9,54.6 	"/>
	<polygon class="st3" points="49,56.9 48.8,57 47.4,55 47.6,54.8 	"/>
	<polygon class="st3" points="48.6,57.1 48.4,57.2 47.1,55.2 47.2,55.1 	"/>
	<polygon class="st3" points="48.2,57.4 48,57.5 46.7,55.4 46.9,55.3 	"/>
	<polygon class="st3" points="47.8,57.6 47.6,57.7 46.4,55.6 46.6,55.5 	"/>
	<polygon class="st3" points="47.5,57.8 47.3,57.9 46,55.8 46.2,55.7 	"/>
	<polygon class="st3" points="47.1,58 46.9,58.2 45.7,56 45.9,55.9 	"/>
	<polygon class="st3" points="46.7,58.3 46.5,58.4 45.3,56.2 45.5,56.1 	"/>
	<polygon class="st3" points="46.3,58.5 46.1,58.6 45,56.4 45.2,56.3 	"/>
	<polygon class="st3" points="45.9,58.7 45.7,58.8 44.6,56.6 44.8,56.5 	"/>
	<polygon class="st3" points="45.5,58.9 45.3,59 44.3,56.8 44.4,56.7 	"/>
	<polygon class="st3" points="45.1,59 44.9,59.1 43.9,57 44.1,56.9 	"/>
	<polygon class="st3" points="44.7,59.2 44.5,59.3 43.5,57.1 43.7,57.1 	"/>
	<polygon class="st3" points="44.3,59.4 44.1,59.5 43.1,57.3 43.3,57.2 	"/>
	<polygon class="st3" points="43.9,59.6 43.6,59.7 42.8,57.5 43,57.4 	"/>
	<polygon class="st3" points="43.4,59.7 43.2,59.8 42.4,57.6 42.6,57.6 	"/>
	<polygon class="st3" points="43,59.9 42.8,60 42,57.8 42.2,57.7 	"/>
	<polygon class="st3" points="42.6,60 42.4,60.1 41.6,57.9 41.8,57.8 	"/>
	<polygon class="st3" points="42.2,60.2 42,60.3 41.2,58 41.4,58 	"/>
	<polygon class="st3" points="41.8,60.3 41.6,60.4 40.9,58.2 41.1,58.1 	"/>
	<polygon class="st3" points="41.3,60.4 41.1,60.5 40.5,58.3 40.7,58.2 	"/>
	<polygon class="st3" points="40.9,60.6 40.7,60.6 40.1,58.4 40.3,58.4 	"/>
	<polygon class="st3" points="40.5,60.7 40.3,60.7 39.7,58.5 39.9,58.5 	"/>
	<polygon class="st3" points="40.1,60.8 39.9,60.8 39.3,58.6 39.5,58.6 	"/>
	<polygon class="st3" points="39.6,60.9 39.4,60.9 38.9,58.7 39.1,58.7 	"/>
	<polygon class="st3" points="39.2,61 39,61 38.5,58.8 38.7,58.8 	"/>
	<polygon class="st3" points="38.8,61.1 38.6,61.1 38.1,58.9 38.3,58.9 	"/>
	<polygon class="st3" points="38.3,61.2 38.1,61.2 37.7,59 37.9,58.9 	"/>
	<polygon class="st3" points="37.9,61.2 37.7,61.3 37.3,59.1 37.5,59 	"/>
	<polygon class="st3" points="37.5,61.3 37.2,61.3 36.9,59.1 37.1,59.1 	"/>
	<polygon class="st3" points="37,61.4 36.8,61.4 36.5,59.2 36.7,59.2 	"/>
	<polygon class="st3" points="36.6,61.4 36.4,61.4 36.1,59.2 36.3,59.2 	"/>
	<polygon class="st3" points="36.1,61.5 35.9,61.5 35.7,59.3 35.9,59.3 	"/>
	<polygon class="st3" points="35.7,61.5 35.5,61.5 35.3,59.3 35.5,59.3 	"/>
	<polygon class="st3" points="35.3,61.5 35,61.6 34.9,59.4 35.1,59.4 	"/>
	<polygon class="st3" points="34.8,61.6 34.6,61.6 34.5,59.4 34.7,59.4 	"/>
	<polygon class="st3" points="34.4,61.6 34.2,61.6 34.1,59.4 34.3,59.4 	"/>
	<polygon class="st3" points="33.9,61.6 33.7,61.6 33.7,59.4 33.9,59.4 	"/>
	<polygon class="st3" points="33.5,61.6 33.3,61.6 33.3,59.4 33.5,59.4 	"/>
	<polygon class="st3" points="33.1,61.6 32.8,61.6 32.9,59.5 33.1,59.5 	"/>
	<polygon class="st3" points="32.6,61.6 32.4,61.6 32.4,59.5 32.7,59.5 	"/>
	<polygon class="st3" points="32.2,61.6 32,61.6 32,59.4 32.2,59.4 	"/>
	<polygon class="st3" points="31.7,61.6 31.5,61.5 31.6,59.4 31.8,59.4 	"/>
	<polygon class="st3" points="31.3,61.5 31.1,61.5 31.2,59.4 31.4,59.4 	"/>
	<polygon class="st3" points="30.9,61.5 30.6,61.5 30.8,59.4 31,59.4 	"/>
	<polygon class="st3" points="30.4,61.4 30.2,61.4 30.4,59.3 30.6,59.4 	"/>
	<polygon class="st3" points="30,61.4 29.8,61.4 30,59.3 30.2,59.3 	"/>
	<polygon class="st3" points="29.5,61.3 29.3,61.3 29.6,59.3 29.8,59.3 	"/>
	<polygon class="st3" points="29.1,61.3 28.9,61.2 29.2,59.2 29.4,59.2 	"/>
	<polygon class="st3" points="28.7,61.2 28.4,61.2 28.8,59.1 29,59.2 	"/>
	<polygon class="st3" points="28.2,61.1 28,61.1 28.4,59.1 28.6,59.1 	"/>
	<polygon class="st3" points="27.8,61 27.6,61 28,59 28.2,59 	"/>
	<polygon class="st3" points="27.4,61 27.1,60.9 27.6,58.9 27.8,59 	"/>
	<polygon class="st3" points="26.9,60.9 26.7,60.8 27.2,58.8 27.4,58.9 	"/>
	<polygon class="st3" points="26.5,60.8 26.3,60.7 26.8,58.7 27,58.8 	"/>
	<polygon class="st3" points="26.1,60.6 25.9,60.6 26.4,58.7 26.6,58.7 	"/>
	<polygon class="st3" points="25.7,60.5 25.4,60.5 26,58.5 26.2,58.6 	"/>
	<polygon class="st3" points="25.2,60.4 25,60.3 25.6,58.4 25.8,58.5 	"/>
	<polygon class="st3" points="24.8,60.3 24.6,60.2 25.2,58.3 25.4,58.4 	"/>
	<polygon class="st3" points="24.4,60.1 24.2,60.1 24.8,58.2 25,58.3 	"/>
	<polygon class="st3" points="24,60 23.8,59.9 24.4,58.1 24.6,58.1 	"/>
	<polygon class="st3" points="23.6,59.8 23.4,59.8 24,57.9 24.2,58 	"/>
	<polygon class="st3" points="23.1,59.7 22.9,59.6 23.6,57.8 23.8,57.9 	"/>
	<polygon class="st3" points="22.7,59.5 22.5,59.4 23.3,57.6 23.5,57.7 	"/>
	<polygon class="st3" points="22.3,59.4 22.1,59.3 22.9,57.5 23.1,57.6 	"/>
	<polygon class="st3" points="21.9,59.2 21.7,59.1 22.5,57.3 22.7,57.4 	"/>
	<polygon class="st3" points="21.5,59 21.3,58.9 22.1,57.2 22.3,57.3 	"/>
	<polygon class="st3" points="21.1,58.8 20.9,58.7 21.8,57 21.9,57.1 	"/>
	<polygon class="st3" points="20.7,58.6 20.5,58.5 21.4,56.8 21.6,56.9 	"/>
	<polygon class="st3" points="20.3,58.4 20.1,58.3 21,56.6 21.2,56.7 	"/>
	<polygon class="st3" points="20,58.2 19.8,58.1 20.7,56.5 20.8,56.5 	"/>
	<polygon class="st3" points="19.6,58 19.4,57.9 20.3,56.3 20.5,56.4 	"/>
	<polygon class="st3" points="19.2,57.8 19,57.7 19.9,56.1 20.1,56.2 	"/>
	<polygon class="st3" points="18.8,57.6 18.6,57.4 19.6,55.9 19.8,56 	"/>
	<polygon class="st3" points="18.4,57.3 18.2,57.2 19.2,55.6 19.4,55.7 	"/>
	<polygon class="st3" points="18.1,57.1 17.9,57 18.9,55.4 19.1,55.5 	"/>
	<polygon class="st3" points="17.7,56.8 17.5,56.7 18.5,55.2 18.7,55.3 	"/>
	<polygon class="st3" points="17.3,56.6 17.2,56.5 18.2,55 18.4,55.1 	"/>
	<polygon class="st3" points="17,56.3 16.8,56.2 17.9,54.7 18,54.9 	"/>
	<polygon class="st3" points="16.6,56.1 16.4,56 17.5,54.5 17.7,54.6 	"/>
	<polygon class="st3" points="16.3,55.8 16.1,55.7 17.2,54.3 17.4,54.4 	"/>
	<polygon class="st3" points="15.9,55.6 15.8,55.4 16.9,54 17,54.1 	"/>
	<polygon class="st3" points="15.6,55.3 15.4,55.1 16.5,53.8 16.7,53.9 	"/>
	<polygon class="st3" points="15.2,55 15.1,54.9 16.2,53.5 16.4,53.6 	"/>
	<polygon class="st3" points="14.9,54.7 14.7,54.6 15.9,53.2 16.1,53.4 	"/>
	<polygon class="st3" points="14.6,54.4 14.4,54.3 15.6,53 15.7,53.1 	"/>
	<polygon class="st3" points="14.3,54.1 14.1,54 15.3,52.7 15.4,52.8 	"/>
	<polygon class="st3" points="13.9,53.8 13.8,53.7 15,52.4 15.1,52.6 	"/>
	<polygon class="st3" points="13.6,53.5 13.5,53.4 14.7,52.1 14.8,52.3 	"/>
	<polygon class="st3" points="13.3,53.2 13.2,53.1 14.4,51.8 14.5,52 	"/>
	<polygon class="st3" points="13,52.9 12.9,52.7 14.1,51.6 14.3,51.7 	"/>
	<polygon class="st3" points="12.7,52.6 12.6,52.4 13.8,51.3 14,51.4 	"/>
	<polygon class="st3" points="12.4,52.3 12.3,52.1 13.5,51 13.7,51.1 	"/>
	<polygon class="st3" points="12.1,51.9 12,51.8 13.3,50.7 13.4,50.8 	"/>
	<polygon class="st3" points="11.9,51.6 11.7,51.4 13,50.3 13.1,50.5 	"/>
	<polygon class="st3" points="11.6,51.3 11.4,51.1 12.7,50 12.9,50.2 	"/>
	<polygon class="st3" points="11.3,50.9 11.2,50.7 12.5,49.7 12.6,49.9 	"/>
	<polygon class="st3" points="11,50.6 10.9,50.4 12.2,49.4 12.3,49.5 	"/>
	<polygon class="st3" points="10.8,50.2 10.6,50 12,49.1 12.1,49.2 	"/>
	<polygon class="st3" points="10.5,49.9 10.4,49.7 11.7,48.7 11.8,48.9 	"/>
	<polygon class="st3" points="10.3,49.5 10.1,49.3 11.5,48.4 11.6,48.6 	"/>
	<polygon class="st3" points="10,49.1 9.9,49 11.2,48.1 11.4,48.2 	"/>
	<polygon class="st3" points="10.5,17.6 10.6,17.5 11.4,18 11.3,18.2 	"/>
	<polygon class="st3" points="10.8,17.3 10.9,17.1 11.6,17.7 11.5,17.8 	"/>
	<polygon class="st3" points="11,16.9 11.1,16.8 11.9,17.3 11.8,17.5 	"/>
	<polygon class="st3" points="11.3,16.6 11.4,16.4 12.1,17 12,17.2 	"/>
	<polygon class="st3" points="11.6,16.3 11.7,16.1 12.4,16.7 12.3,16.8 	"/>
	<polygon class="st3" points="11.8,15.9 12,15.8 12.7,16.3 12.5,16.5 	"/>
	<polygon class="st3" points="12.1,15.6 12.3,15.4 12.9,16 12.8,16.2 	"/>
	<polygon class="st3" points="12.4,15.3 12.5,15.1 13.2,15.7 13.1,15.9 	"/>
	<polygon class="st3" points="12.7,15 12.8,14.8 13.5,15.4 13.3,15.6 	"/>
	<polygon class="st3" points="13,14.6 13.1,14.5 13.8,15.1 13.6,15.2 	"/>
	<polygon class="st3" points="13.3,14.3 13.4,14.2 14.1,14.8 13.9,14.9 	"/>
	<polygon class="st3" points="13.6,14 13.7,13.9 14.3,14.5 14.2,14.6 	"/>
	<polygon class="st3" points="13.9,13.7 14,13.6 14.6,14.2 14.5,14.3 	"/>
	<polygon class="st3" points="14.2,13.4 14.4,13.3 14.9,13.9 14.8,14.1 	"/>
	<polygon class="st3" points="14.5,13.1 14.7,13 15.2,13.6 15.1,13.8 	"/>
	<polygon class="st3" points="14.8,12.9 15,12.7 15.6,13.3 15.4,13.5 	"/>
	<polygon class="st3" points="15.2,12.6 15.3,12.4 15.9,13.1 15.7,13.2 	"/>
	<polygon class="st3" points="15.5,12.3 15.7,12.2 16.2,12.8 16,12.9 	"/>
	<polygon class="st3" points="15.8,12 16,11.9 16.5,12.5 16.4,12.7 	"/>
	<polygon class="st3" points="16.2,11.8 16.4,11.6 16.8,12.3 16.7,12.4 	"/>
	<polygon class="st3" points="16.5,11.5 16.7,11.4 17.2,12 17,12.1 	"/>
	<polygon class="st3" points="16.9,11.3 17.1,11.1 17.5,11.8 17.3,11.9 	"/>
	<polygon class="st3" points="17.2,11 17.4,10.9 17.9,11.5 17.7,11.6 	"/>
	<polygon class="st3" points="17.6,10.8 17.8,10.6 18.2,11.3 18,11.4 	"/>
	<polygon class="st3" points="17.9,10.5 18.1,10.4 18.5,11 18.4,11.2 	"/>
	<polygon class="st3" points="18.3,10.3 18.5,10.2 18.9,10.8 18.7,10.9 	"/>
	<polygon class="st3" points="18.7,10.1 18.9,10 19.2,10.6 19.1,10.7 	"/>
	<polygon class="st3" points="19.1,9.8 19.2,9.7 19.6,10.4 19.4,10.5 	"/>
	<polygon class="st3" points="19.4,9.6 19.6,9.5 20,10.2 19.8,10.3 	"/>
	<polygon class="st3" points="19.8,9.4 20,9.3 20.3,9.9 20.2,10.1 	"/>
	<polygon class="st3" points="20.2,9.2 20.4,9.1 20.7,9.7 20.5,9.8 	"/>
	<polygon class="st3" points="20.6,9 20.8,8.9 21.1,9.6 20.9,9.6 	"/>
	<polygon class="st3" points="21,8.8 21.2,8.7 21.5,9.4 21.3,9.5 	"/>
	<polygon class="st3" points="21.3,8.6 21.5,8.6 21.8,9.2 21.6,9.3 	"/>
	<polygon class="st3" points="21.7,8.5 21.9,8.4 22.2,9 22,9.1 	"/>
	<polygon class="st3" points="22.1,8.3 22.3,8.2 22.6,8.8 22.4,8.9 	"/>
	<polygon class="st3" points="22.5,8.1 22.7,8.1 23,8.7 22.8,8.7 	"/>
	<polygon class="st3" points="22.9,8 23.1,7.9 23.4,8.5 23.2,8.6 	"/>
	<polygon class="st3" points="23.3,7.8 23.5,7.7 23.8,8.3 23.6,8.4 	"/>
	<polygon class="st3" points="23.7,7.7 24,7.6 24.2,8.2 24,8.3 	"/>
	<polygon class="st3" points="24.2,7.5 24.4,7.5 24.6,8.1 24.4,8.1 	"/>
	<polygon class="st3" points="24.6,7.4 24.8,7.3 25,7.9 24.8,8 	"/>
	<polygon class="st3" points="25,7.3 25.2,7.2 25.4,7.8 25.2,7.9 	"/>
	<polygon class="st3" points="25.4,7.2 25.6,7.1 25.8,7.7 25.6,7.7 	"/>
	<polygon class="st3" points="25.8,7.1 26,7 26.2,7.6 26,7.6 	"/>
	<polygon class="st3" points="26.2,6.9 26.4,6.9 26.6,7.5 26.4,7.5 	"/>
	<polygon class="st3" points="26.6,6.8 26.8,6.8 27,7.4 26.8,7.4 	"/>
	<polygon class="st3" points="27,6.8 27.3,6.7 27.4,7.3 27.2,7.3 	"/>
	<polygon class="st3" points="27.5,6.7 27.7,6.6 27.8,7.2 27.6,7.2 	"/>
	<polygon class="st3" points="27.9,6.6 28.1,6.5 28.2,7.1 28,7.1 	"/>
	<polygon class="st3" points="28.3,6.5 28.5,6.5 28.6,7 28.4,7 	"/>
	<polygon class="st3" points="28.7,6.4 28.9,6.4 29,6.9 28.8,7 	"/>
	<polygon class="st3" points="29.2,6.4 29.4,6.4 29.4,6.9 29.2,6.9 	"/>
	<polygon class="st3" points="29.6,6.3 29.8,6.3 29.9,6.8 29.6,6.8 	"/>
	<polygon class="st3" points="30,6.3 30.2,6.3 30.3,6.8 30.1,6.8 	"/>
	<polygon class="st3" points="30.4,6.2 30.6,6.2 30.7,6.7 30.5,6.7 	"/>
	<polygon class="st3" points="30.9,6.2 31.1,6.2 31.1,6.7 30.9,6.7 	"/>
	<polygon class="st3" points="31.3,6.2 31.5,6.2 31.5,6.6 31.3,6.7 	"/>
	<polygon class="st3" points="31.7,6.2 31.9,6.2 32,6.6 31.7,6.6 	"/>
	<polygon class="st3" points="32.1,6.1 32.4,6.1 32.4,6.6 32.2,6.6 	"/>
	<polygon class="st3" points="32.6,6.1 32.8,6.1 32.8,6.6 32.6,6.6 	"/>
	<polygon class="st3" points="33,6.1 33.2,6.1 33.2,6.6 33,6.6 	"/>
	<polygon class="st3" points="33.4,6.1 33.6,6.2 33.6,6.6 33.4,6.6 	"/>
	<polygon class="st3" points="33.9,6.2 34.1,6.2 34.1,6.6 33.9,6.6 	"/>
	<polygon class="st3" points="34.3,6.2 34.5,6.2 34.5,6.6 34.3,6.6 	"/>
	<polygon class="st3" points="34.7,6.2 34.9,6.2 34.9,6.6 34.7,6.6 	"/>
	<polygon class="st3" points="35.1,6.2 35.4,6.3 35.3,6.7 35.1,6.6 	"/>
	<polygon class="st3" points="35.6,6.3 35.8,6.3 35.7,6.7 35.5,6.7 	"/>
	<polygon class="st3" points="36,6.3 36.2,6.4 36.2,6.7 36,6.7 	"/>
	<polygon class="st3" points="36.4,6.4 36.6,6.4 36.6,6.8 36.4,6.8 	"/>
	<polygon class="st3" points="36.8,6.4 37.1,6.5 37,6.8 36.8,6.8 	"/>
	<polygon class="st3" points="37.3,6.5 37.5,6.5 37.4,6.9 37.2,6.9 	"/>
	<polygon class="st3" points="37.7,6.6 37.9,6.6 37.8,7 37.6,6.9 	"/>
	<polygon class="st3" points="38.1,6.7 38.3,6.7 38.3,7 38,7 	"/>
	<polygon class="st3" points="38.5,6.7 38.7,6.8 38.7,7.1 38.5,7.1 	"/>
	<polygon class="st3" points="38.9,6.8 39.2,6.9 39.1,7.2 38.9,7.2 	"/>
	<polygon class="st3" points="39.4,6.9 39.6,7 39.5,7.3 39.3,7.2 	"/>
	<polygon class="st3" points="39.8,7 40,7.1 39.9,7.4 39.7,7.3 	"/>
	<polygon class="st3" points="40.2,7.2 40.4,7.2 40.3,7.5 40.1,7.4 	"/>
	<polygon class="st3" points="40.6,7.3 40.8,7.3 40.7,7.6 40.5,7.6 	"/>
	<polygon class="st3" points="41,7.4 41.2,7.5 41.1,7.7 40.9,7.7 	"/>
	<polygon class="st3" points="41.4,7.5 41.6,7.6 41.5,7.9 41.3,7.8 	"/>
	<polygon class="st3" points="41.8,7.7 42,7.7 41.9,8 41.7,7.9 	"/>
	<polygon class="st3" points="42.2,7.8 42.4,7.9 42.3,8.1 42.1,8.1 	"/>
	<polygon class="st3" points="42.6,8 42.8,8 42.7,8.3 42.5,8.2 	"/>
	<polygon class="st3" points="43,8.1 43.2,8.2 43.1,8.4 42.9,8.3 	"/>
	<polygon class="st3" points="43.4,8.3 43.6,8.4 43.5,8.6 43.3,8.5 	"/>
	<polygon class="st3" points="43.8,8.5 44,8.5 43.9,8.7 43.7,8.7 	"/>
	<polygon class="st3" points="44.2,8.6 44.4,8.7 44.3,8.9 44.1,8.8 	"/>
	<polygon class="st3" points="44.6,8.8 44.8,8.9 44.7,9.1 44.5,9 	"/>
	<polygon class="st3" points="45,9 45.2,9.1 45.1,9.3 44.9,9.2 	"/>
	<polygon class="st3" points="45.3,9.2 45.5,9.3 45.4,9.5 45.3,9.4 	"/>
	<polygon class="st3" points="45.7,9.4 45.9,9.5 45.8,9.6 45.6,9.5 	"/>
	<polygon class="st3" points="46.1,9.6 46.3,9.7 46.2,9.8 46,9.7 	"/>
	<polygon class="st3" points="46.5,9.8 46.7,9.9 46.6,10.1 46.4,9.9 	"/>
	<polygon class="st3" points="46.8,10 47,10.1 46.9,10.3 46.8,10.2 	"/>
	<polygon class="st3" points="47.2,10.2 47.4,10.4 47.3,10.5 47.1,10.4 	"/>
	<polygon class="st3" points="47.6,10.5 47.7,10.6 47.7,10.7 47.5,10.6 	"/>
	<polygon class="st3" points="47.9,10.7 48.1,10.8 48,10.9 47.8,10.8 	"/>
	<polygon class="st3" points="48.3,10.9 48.4,11.1 48.4,11.2 48.2,11 	"/>
	<polygon class="st3" points="48.6,11.2 48.8,11.3 48.7,11.4 48.6,11.3 	"/>
	<polygon class="st3" points="49,11.4 49.1,11.6 49.1,11.6 48.9,11.5 	"/>
	<polygon class="st3" points="49.3,11.7 49.5,11.8 49.4,11.9 49.2,11.8 	"/>
	<polygon class="st3" points="49.6,12 49.8,12.1 49.8,12.2 	"/>
	<polygon class="st3" points="50,12.2 50.1,12.4 50.1,12.4 49.9,12.3 	"/>
	<polygon class="st3" points="50.3,12.5 50.5,12.6 50.4,12.7 50.3,12.6 	"/>
	<polygon class="st3" points="50.6,12.8 50.8,12.9 50.7,13 	"/>
	<polygon class="st3" points="50.9,13.1 51.1,13.2 51.1,13.2 	"/>
	<polygon class="st3" points="51.3,13.3 51.4,13.5 51.4,13.5 51.2,13.4 	"/>
	<polygon class="st3" points="51.6,13.6 51.7,13.8 51.7,13.8 51.5,13.7 	"/>
	<polygon class="st3" points="51.9,13.9 52,14.1 52,14.1 51.8,13.9 	"/>
	<polygon class="st3" points="52.2,14.2 52.3,14.4 52.3,14.4 52.1,14.2 	"/>
	<polygon class="st3" points="52.5,14.5 52.6,14.7 52.6,14.7 	"/>
	<path class="st3" d="M52.8,14.9l0.1,0.1L52.8,14.9z"/>
	<path class="st6" d="M56.8,32.4v-0.6c-0.2-2.7-0.8-5.4-1.8-7.9l-0.1-0.3h-5.4c-0.1-0.7-0.3-1.5-0.5-2.2h4.8l-0.5-0.9
		c-2.6-4.2-6.5-7.5-11.1-9.3l-2-0.8l1.4,1.7c2,2.6,3.6,5.6,4.5,8.8c0.3,0.9,0.5,1.8,0.7,2.7l0.1,0.6c0.4,1.8,0.6,3.6,0.7,5.4h-2.2
		c-0.1-1.6-0.4-3.2-0.7-4.7l-0.1-0.7c-0.3-1.4-0.7-2.8-1.2-4.1l-0.1-0.4l0,0c-1.9-5.2-4.8-8.7-8-9.8l-0.7-0.2v8.8h-2.1V9.8L31.6,10
		c-3.5,0.9-6.6,4.6-8.6,10.3l-0.4,1.2l0,0c-0.5,1.6-0.8,2.8-0.8,2.9v0.2c-0.4,1.7-0.6,3.4-0.7,5.1h-2.2c0.1-1.8,0.4-3.6,0.7-5.4
		l0.1-0.4c0.1-0.6,0.4-1.8,0.8-3.2c0.9-3,2.3-5.9,4.2-8.4l1.4-1.7l-2,0.9c-4.4,1.9-8.1,5.1-10.6,9.1L13,21.5h4.5
		c-0.2,0.7-0.4,1.5-0.5,2.2h-5.1L11.6,24c-1.1,2.5-1.7,5.2-1.8,7.9v0.6h19.7v2.2H9.8v0.6c0.2,2.9,1,5.8,2.3,8.4l0.2,0.3h4.8
		c0.2,0.9,0.4,1.7,0.5,2.2h-4.1l0.6,0.9c2.5,3.5,5.9,6.3,9.9,8l2,0.9l-1.4-1.7c-1.7-2.3-3.1-4.9-4-7.7c-0.4-1.1-0.7-2.3-0.9-3.5
		c-0.4-1.8-0.7-3.7-0.9-5.6H21c0.2,2.1,0.6,4.1,1.1,6.1v0.2c0.3,1.1,0.6,2.2,1,3.2l0.3,0.7l0,0c2,4.9,4.9,8.1,8.1,8.9l0.7,0.2V49
		h2.1v7.8l0.7-0.2c3-1,5.9-4.4,7.8-9.2l0,0l0.4-1.1l0,0c0.4-1,0.7-2,0.9-3l0.1-0.4c0.4-1.7,0.7-3.5,0.9-5.3h2.2
		c-0.2,1.9-0.5,3.8-0.9,5.7c-0.3,1.2-0.6,2.3-0.9,3.4c-0.9,2.9-2.3,5.5-4.1,7.9L40,56l2-0.8c4.2-1.7,7.8-4.6,10.4-8.3L53,46h-4.5
		c0.3-0.7,0.5-1.5,0.6-2.2h5.2c1.2-2.8,2-5.7,2.3-8.7v-0.6H37.1v-2.2h19.7V32.4z M25.1,43.9h16c-0.2,0.7-0.5,1.5-0.7,2.2H25.8
		C25.6,45.5,25.3,44.6,25.1,43.9 M41.4,23.6H24.8c0.2-0.7,0.4-1.5,0.6-2.2h15.3C41,22.4,41.2,23.1,41.4,23.6 M32.3,26.4h2.1v14.8
		h-2.1V26.4z"/>
	<path class="st3" d="M52,60.2c-2.6,1.8-5.5,3.3-8.5,4.4c-3,1-6.1,1.6-9.3,1.7s-6.3-0.3-9.4-1.1c-3.1-0.8-6-2.1-8.7-3.7
		c-2.7-1.7-5.1-3.8-7.2-6.1c-2.1-2.4-3.8-5-5.1-7.9s-2.2-5.9-2.6-9s-0.3-6.2,0.1-9.3c0.5-3.1,1.5-6.1,2.8-8.9
		c1.4-2.8,3.2-5.3,5.3-7.6c2.1-2.2,4.6-4.2,7.2-5.8c2.7-1.5,5.6-2.7,8.6-3.4s6-0.9,9.1-0.8c3,0.2,6,0.9,8.9,1.9
		c2.8,1.1,5.5,2.6,8,4.4c2.4,1.9,4.5,4.1,6.3,6.5c-1.8-2.4-4-4.5-6.5-6.3C48.5,7.4,45.8,6,43,5s-5.8-1.5-8.8-1.7
		c-3-0.1-6,0.2-8.9,0.9c-2.9,0.8-5.6,2-8.2,3.5c-2.5,1.6-4.8,3.5-6.8,5.7c-1.9,2.3-3.6,4.7-4.9,7.4c-1.2,2.7-2,5.6-2.5,8.5
		c-0.4,2.9-0.3,5.9,0.1,8.8c0.5,2.9,1.4,5.7,2.6,8.4c1.3,2.6,3,5,4.9,7.2c2,2.1,4.3,4,6.8,5.5c2.6,1.4,5.3,2.5,8.1,3.3
		c2.8,0.6,5.7,0.9,8.6,0.8c2.9-0.2,5.7-0.8,8.4-1.8c2.7-1,5.2-2.4,7.5-4.1L52,60.2z"/>
	<g>
		<g>
			<defs>
				<path id="SVGID_1_" d="M56.6,32.3v-0.6c-0.2-2.7-0.8-5.4-1.8-7.9l-0.1-0.3h-5.4c-0.1-0.7-0.3-1.5-0.5-2.2h4.8l-0.5-0.9
					c-2.6-4.2-6.5-7.5-11.1-9.3l-2-0.8l1.4,1.7c2,2.6,3.6,5.6,4.5,8.8c0.3,0.9,0.5,1.8,0.7,2.7l0.1,0.6c0.4,1.8,0.6,3.6,0.7,5.4H45
					c-0.1-1.6-0.4-3.2-0.7-4.7l-0.1-0.7c-0.3-1.4-0.7-2.8-1.2-4.1l-0.1-0.4l0,0c-1.9-5.2-4.8-8.7-8-9.8l-0.7-0.2v8.8h-2.1V9.7
					l-0.7,0.2c-3.5,0.9-6.6,4.6-8.6,10.3l-0.4,1.2l0,0c-0.5,1.6-0.8,2.8-0.8,2.9v0.2c-0.4,1.7-0.6,3.4-0.7,5.1h-2.2
					c0.1-1.8,0.4-3.6,0.7-5.4l0.1-0.4c0.1-0.6,0.4-1.8,0.8-3.2c0.9-3,2.3-5.9,4.2-8.4l1.4-1.7l-2,0.9c-4.4,1.9-8.1,5.1-10.6,9.1
					l-0.5,0.9h4.5c-0.2,0.7-0.4,1.5-0.5,2.2h-5.1l-0.1,0.3c-1.1,2.5-1.7,5.2-1.8,7.9v0.6h19.7v2.2H9.6v0.6c0.2,2.9,1,5.8,2.3,8.4
					l0.2,0.3h4.8c0.2,0.9,0.4,1.7,0.5,2.2h-4.1l0.6,0.9c2.5,3.5,5.9,6.3,9.9,8l2,0.9L24.5,54c-1.7-2.3-3.1-4.9-4-7.7
					c-0.4-1.1-0.7-2.3-0.9-3.5c-0.4-1.8-0.7-3.7-0.9-5.6h2.2c0.2,2.1,0.6,4.1,1.1,6.1v0.2c0.3,1.1,0.6,2.2,1,3.2l0.3,0.7l0,0
					c2,4.9,4.9,8.1,8.1,8.9l0.7,0.2v-7.8h2.1v7.8l0.7-0.2c3-1,5.9-4.4,7.8-9.2l0,0l0.4-1.1l0,0c0.4-1,0.7-2,0.9-3l0.1-0.4
					c0.4-1.7,0.7-3.5,0.9-5.3h2.2c-0.2,1.9-0.5,3.8-0.9,5.7c-0.3,1.2-0.6,2.3-0.9,3.4c-0.9,2.9-2.3,5.5-4.1,7.9L39.9,56l2-0.8
					c4.2-1.7,7.8-4.6,10.4-8.3l0.6-0.9h-4.5c0.3-0.7,0.5-1.5,0.6-2.2h5.2c1.2-2.8,2-5.7,2.3-8.7v-0.6H37v-2.2H56.6z M24.9,43.8h16
					c-0.2,0.7-0.5,1.5-0.7,2.2H25.6C25.4,45.4,25.1,44.5,24.9,43.8 M41.2,23.5H24.7c0.2-0.7,0.4-1.5,0.6-2.2h15.3
					C40.7,22,40.9,22.8,41.2,23.5 M32.1,26.3h2.1V41h-2.1V26.3z"/>
			</defs>
			<clipPath id="SVGID_2_">
				<use xlink:href="#SVGID_1_"  style="overflow:visible;"/>
			</clipPath>
			<g class="st7">
				<rect x="-15.2" y="6.4" class="st0" width="88.7" height="53.4"/>
			</g>
		</g>
	</g>
</g>
</svg>
